<?xml version="1.0" encoding="utf-8"?>
<!-- Generator: Adobe Illustrator 16.1.0, SVG Export Plug-In . SVG Version: 6.00 Build 0)  -->
<!DOCTYPE svg PUBLIC "-//W3C//DTD SVG 1.1//EN" "http://www.w3.org/Graphics/SVG/1.1/DTD/svg11.dtd">
<svg version="1.1" id="Layer_1" xmlns="http://www.w3.org/2000/svg" xmlns:xlink="http://www.w3.org/1999/xlink" x="0px" y="0px"
	 width="72px" height="72px" viewBox="0 0 72 72" enable-background="new 0 0 72 72" xml:space="preserve">
<g>
	<path fill-rule="evenodd" clip-rule="evenodd" fill="#454545" d="M46.277,24.176c-2.292,7.484-8.582,10.077-15.6,6.844
		c-6.356-2.928-10.725-10.033-9.984-16.234c0.808-6.751,6.367-13.028,13.633-14.269c12.038-2.055,21.885,2.132,29.378,10.5
		c7.144,7.976,7.753,16.958,2.517,26.061c-7.056,12.269-25.523,18.575-39.639,13.603c-2.088-0.735-4.387-1.71-5.789-3.198
		C14.298,40.591,8.085,33.48,2.459,25.708c4.584,3.043,8.938,6.448,13.811,9.04c6.158,3.274,12.463,6.715,19.205,8.589
		c9.751,2.71,19.582-3.892,21.176-13.091c1.396-8.051-5.596-18.157-14.12-20.408c-5.089-1.344-9.245,0.034-11.318,3.752
		c-2.768,4.965-0.736,9.13,5.239,10.099C39.538,24.189,42.753,24.025,46.277,24.176z"/>
	<path fill-rule="evenodd" clip-rule="evenodd" fill="#454545" d="M72,44.739c-1.459,13.485-20.473,27.655-35.551,27.252
		C17.277,71.478,0.547,60.187,0,46.946c5.493,3.34,10.649,6.673,16.015,9.694c8.724,4.912,18.002,8.396,28.475,5.808
		c3.784-0.935,7.56-2.657,10.706-4.792C60.815,53.843,65.953,49.445,72,44.739z"/>
</g>
</svg>
